<svg width="74" height="31" viewBox="0 0 74 31" fill="none" xmlns="http://www.w3.org/2000/svg">
<path fill-rule="evenodd" clip-rule="evenodd" d="M73.82 11.4931C73.7868 11.5818 73.7539 11.6585 73.721 11.7227C73.6383 11.9322 73.5684 12.1214 73.5108 12.2906C73.4529 12.4598 73.383 12.6169 73.3007 12.7619C73.2346 12.8911 73.1771 12.9998 73.1276 13.0881C73.0781 13.1769 73.0202 13.2856 72.9545 13.4144C72.8719 13.5435 72.8061 13.7044 72.7567 13.8978L72.4847 14.2361V14.3086C72.402 14.4377 72.332 14.5586 72.2745 14.6711C72.2166 14.7841 72.1385 14.9049 72.0396 15.0337L71.5451 15.8553C71.5119 15.9199 71.479 16.0004 71.4462 16.0971C71.4295 16.0971 71.4215 16.1012 71.4215 16.1091C71.4215 16.1174 71.4048 16.1212 71.372 16.1212C71.3388 16.2179 71.3017 16.2904 71.2607 16.3387C71.2193 16.387 71.1742 16.4516 71.1247 16.532C71.0421 16.5804 70.964 16.6529 70.8898 16.7495C70.8156 16.8462 70.7453 16.935 70.6796 17.0154C70.6464 17.0479 70.6217 17.0637 70.6054 17.0637C70.5888 17.0637 70.556 17.08 70.5066 17.1121C70.4899 17.1446 70.4733 17.1687 70.4571 17.1846C70.4239 17.217 70.3992 17.2329 70.3829 17.2329L70.3335 17.2571C70.218 17.3379 70.1519 17.3862 70.1356 17.4021C70.119 17.4183 70.0615 17.4746 69.9625 17.5713C69.9293 17.6038 69.9088 17.6196 69.9007 17.6196C69.8922 17.6196 69.8799 17.6279 69.8637 17.6437L69.8389 17.668L69.7153 17.7163L69.5422 17.8613C69.41 17.9742 69.3031 18.0667 69.2207 18.1392C69.138 18.2117 69.0229 18.2884 68.8746 18.3688C68.8085 18.4334 68.7053 18.498 68.5654 18.5622C68.4253 18.6267 68.3221 18.683 68.2564 18.7313C68.1575 18.7797 67.9759 18.8521 67.7124 18.9488C67.4485 19.0455 67.2012 19.1422 66.9706 19.2389C66.8879 19.2713 66.8014 19.3031 66.711 19.3355C66.6202 19.3676 66.5336 19.3997 66.4513 19.4322C66.3687 19.448 66.2945 19.4684 66.2288 19.4926C66.1627 19.5168 66.0885 19.5368 66.0063 19.553C65.9568 19.5851 65.8865 19.6214 65.7961 19.6618C65.7053 19.7018 65.6353 19.7139 65.5859 19.698C65.4375 19.6656 65.293 19.6777 65.1532 19.7343C65.0129 19.7905 64.8688 19.8348 64.7204 19.8672L63.8303 19.9639C63.7642 19.9797 63.6653 19.9881 63.5336 19.9881C63.4841 19.9881 63.4346 19.9918 63.3852 20.0001C63.3358 20.008 63.2863 20.0122 63.2368 20.0122C63.1541 20.0443 63.0637 20.0643 62.9648 20.0726C62.8659 20.0806 62.7751 20.0927 62.6928 20.1089L62.1736 20.2055C62.2064 20.4631 62.2311 20.7131 62.2478 20.9547C62.264 21.1965 62.2724 21.4298 62.2724 21.6556C62.2887 21.8327 62.2972 21.9977 62.2972 22.151C62.2972 22.304 62.2972 22.469 62.2972 22.6465C62.2972 22.7753 62.2972 22.9124 62.2972 23.0573C62.2972 23.2023 62.2806 23.3391 62.2478 23.4682V23.6374C62.2806 23.8628 62.2972 24.0845 62.2972 24.3019C62.2972 24.5195 62.2887 24.7408 62.2724 24.9666C62.2724 25.0792 62.2806 25.192 62.2972 25.3049C62.3135 25.4174 62.3219 25.5383 62.3219 25.6674C62.3219 25.8446 62.3177 26.0179 62.3095 26.1871C62.3011 26.3562 62.2887 26.5292 62.2724 26.7067C62.2558 26.8192 62.2478 26.928 62.2478 27.0329C62.2478 27.1375 62.2478 27.2463 62.2478 27.3592C62.2478 27.7296 62.1898 28.0601 62.0746 28.3501C61.992 28.5272 61.9263 28.7043 61.8768 28.8818C61.8274 29.0589 61.7613 29.236 61.679 29.4135C61.5469 29.7356 61.3243 29.9289 61.0114 29.9935C60.9782 30.0094 60.9496 30.0256 60.9248 30.0418C60.9001 30.0577 60.8711 30.0739 60.8383 30.0902C60.7394 30.1544 60.6652 30.1868 60.6158 30.1868C60.4836 30.1868 60.36 30.2594 60.2448 30.4043C60.1788 30.5493 60.0633 30.5977 59.8987 30.5493C59.6676 30.501 59.4698 30.5252 59.3053 30.6219C59.2558 30.6539 59.2025 30.6823 59.1445 30.7064C59.087 30.7306 59.0333 30.7586 58.9838 30.7911L58.6129 30.8635L58.4645 30.7427C58.3988 30.7748 58.3328 30.8069 58.2667 30.8394C58.201 30.8714 58.1268 30.9036 58.0441 30.936C57.9124 30.8394 57.8178 30.7223 57.7598 30.5856C57.7022 30.4485 57.6899 30.2914 57.7228 30.1144C57.7721 29.8885 57.8012 29.6551 57.8092 29.4135C57.8178 29.1718 57.8382 28.9301 57.8711 28.6885L57.97 27.5767C57.9866 27.3509 58.0032 27.1375 58.0194 26.9363C58.0361 26.7346 58.0441 26.5212 58.0441 26.2958C58.028 26.07 58.028 25.8404 58.0441 25.607C58.0607 25.3733 58.0774 25.1437 58.0936 24.9183C58.1102 24.7249 58.1184 24.5316 58.1184 24.3383C58.1184 24.1449 58.135 23.9515 58.1678 23.7582C58.201 23.597 58.2049 23.4357 58.1802 23.2749C58.1555 23.1136 58.135 22.9523 58.1184 22.7915C58.1184 22.5657 58.1226 22.3482 58.1307 22.139C58.1392 21.9294 58.1515 21.7119 58.1678 21.4864C58.1844 21.1156 58.2134 20.741 58.2543 20.3626C58.2956 19.9839 58.3494 19.6093 58.4151 19.2389C58.4483 19.0617 58.4645 18.8763 58.4645 18.683C58.4645 18.4896 58.4811 18.3046 58.514 18.1271L58.687 16.7737C58.7037 16.6449 58.716 16.5282 58.7241 16.4233C58.7327 16.3187 58.7365 16.202 58.7365 16.0728C58.7365 15.8795 58.7407 15.6541 58.7489 15.3962C58.7574 15.1386 58.7736 14.8766 58.7983 14.6107C58.8012 14.5803 58.804 14.5505 58.8068 14.5201C58.7774 14.5718 58.7491 14.6226 58.7243 14.6711C58.6663 14.7841 58.5883 14.9049 58.4894 15.0337L57.9949 15.8553C57.9617 15.9199 57.9288 16.0004 57.8959 16.0971C57.8793 16.0971 57.8712 16.1012 57.8712 16.1091C57.8712 16.1174 57.8546 16.1212 57.8218 16.1212C57.7885 16.2179 57.7515 16.2904 57.7105 16.3387C57.6691 16.387 57.624 16.4516 57.5745 16.532C57.4918 16.5804 57.4138 16.6529 57.3396 16.7495C57.2654 16.8462 57.1951 16.935 57.1294 17.0154C57.0962 17.0479 57.0715 17.0637 57.0552 17.0637C57.0386 17.0637 57.0057 17.08 56.9564 17.1121C56.9397 17.1446 56.9231 17.1687 56.9069 17.1846C56.8736 17.217 56.8489 17.2329 56.8327 17.2329L56.7832 17.2571C56.6677 17.3379 56.6017 17.3862 56.5854 17.4021C56.5688 17.4183 56.5113 17.4746 56.4123 17.5713C56.3791 17.6038 56.3586 17.6196 56.3505 17.6196C56.342 17.6196 56.3297 17.6279 56.3134 17.6437L56.2887 17.668L56.165 17.7163L55.992 17.8613C55.8598 17.9742 55.7528 18.0667 55.6705 18.1392C55.5878 18.2117 55.4727 18.2884 55.3244 18.3688C55.2583 18.4334 55.1551 18.498 55.0152 18.5622C54.875 18.6267 54.7719 18.683 54.7062 18.7313C54.6073 18.7797 54.4256 18.8521 54.1622 18.9488C53.8983 19.0455 53.651 19.1422 53.4203 19.2389C53.3377 19.2713 53.2512 19.3031 53.1608 19.3355C53.07 19.3676 52.9834 19.3997 52.9011 19.4322C52.8184 19.448 52.7443 19.4684 52.6786 19.4926C52.6125 19.5168 52.5383 19.5368 52.4561 19.553C52.4066 19.5851 52.3363 19.6214 52.2459 19.6618C52.1551 19.7018 52.0851 19.7139 52.0357 19.698C51.8873 19.6656 51.7428 19.6777 51.6029 19.7343C51.4627 19.7905 51.3186 19.8348 51.1702 19.8672L50.28 19.9639C50.214 19.9797 50.1151 19.9881 49.9834 19.9881C49.9339 19.9881 49.8844 19.9918 49.8349 20.0001C49.7855 20.008 49.7361 20.0122 49.6866 20.0122C49.6039 20.0443 49.5135 20.0643 49.4146 20.0726C49.3157 20.0806 49.2249 20.0927 49.1426 20.1089L48.6234 20.2055C48.6561 20.4631 48.6809 20.7131 48.6975 20.9547C48.7138 21.1965 48.7222 21.4298 48.7222 21.6556C48.7385 21.8327 48.747 21.9977 48.747 22.151C48.747 22.304 48.747 22.469 48.747 22.6465C48.747 22.7753 48.747 22.9124 48.747 23.0573C48.747 23.2023 48.7304 23.3391 48.6975 23.4682V23.6374C48.7304 23.8628 48.747 24.0845 48.747 24.3019C48.747 24.5195 48.7385 24.7408 48.7222 24.9666C48.7222 25.0792 48.7304 25.192 48.747 25.3049C48.7632 25.4174 48.7717 25.5383 48.7717 25.6674C48.7717 25.8446 48.7675 26.0179 48.7593 26.1871C48.7509 26.3562 48.7385 26.5292 48.7222 26.7067C48.7056 26.8192 48.6975 26.928 48.6975 27.0329C48.6975 27.1375 48.6975 27.2463 48.6975 27.3592C48.6975 27.7296 48.6396 28.0601 48.5244 28.3501C48.4418 28.5272 48.3761 28.7043 48.3266 28.8818C48.2771 29.0589 48.2111 29.236 48.1288 29.4135C47.9967 29.7356 47.7741 29.9289 47.4612 29.9935C47.428 30.0094 47.3993 30.0256 47.3746 30.0418C47.3499 30.0577 47.3209 30.0739 47.2881 30.0902C47.1892 30.1544 47.115 30.1868 47.0656 30.1868C46.9334 30.1868 46.8097 30.2594 46.6946 30.4043C46.6285 30.5493 46.5131 30.5977 46.3485 30.5493C46.1174 30.501 45.9196 30.5252 45.755 30.6219C45.7056 30.6539 45.6522 30.6823 45.5943 30.7064C45.5368 30.7306 45.4831 30.7586 45.4336 30.7911L45.0627 30.8635L44.9143 30.7427C44.8486 30.7748 44.7825 30.8069 44.7165 30.8394C44.6508 30.8714 44.5766 30.9036 44.4939 30.936C44.3622 30.8394 44.2676 30.7223 44.2096 30.5856C44.152 30.4485 44.1397 30.2914 44.1725 30.1144C44.2219 29.8885 44.2509 29.6551 44.259 29.4135C44.2676 29.1718 44.288 28.9301 44.3209 28.6885L44.4198 27.5767C44.4364 27.3509 44.453 27.1375 44.4692 26.9363C44.4858 26.7346 44.4939 26.5212 44.4939 26.2958C44.4777 26.07 44.4777 25.8404 44.4939 25.607C44.5105 25.3733 44.5272 25.1437 44.5434 24.9183C44.56 24.7249 44.5681 24.5316 44.5681 24.3383C44.5681 24.1449 44.5847 23.9515 44.6176 23.7582C44.6508 23.597 44.6547 23.4357 44.63 23.2749C44.6053 23.1136 44.5847 22.9523 44.5681 22.7915C44.5681 22.5657 44.5724 22.3482 44.5805 22.139C44.589 21.9294 44.6013 21.7119 44.6176 21.4864C44.6342 21.1156 44.6632 20.741 44.7041 20.3626C44.7454 19.9839 44.7991 19.6093 44.8648 19.2389C44.8981 19.0617 44.9143 18.8763 44.9143 18.683C44.9143 18.4896 44.9309 18.3046 44.9638 18.1271L45.1368 16.7737C45.1535 16.6449 45.1658 16.5282 45.1739 16.4233C45.1825 16.3187 45.1863 16.202 45.1863 16.0728C45.1863 15.8795 45.1905 15.6541 45.1987 15.3962C45.201 15.3257 45.2053 15.254 45.2089 15.1829L45.1617 15.2995L44.8897 15.9037C44.6258 16.4354 44.362 16.9633 44.0984 17.4867C43.8345 18.0104 43.4884 18.4817 43.0599 18.9005C42.8289 19.1263 42.5406 19.3072 42.1945 19.4443C41.8483 19.581 41.5021 19.6497 41.156 19.6497C40.892 19.6497 40.6367 19.6014 40.3894 19.5047C40.1255 19.3918 39.9196 19.263 39.7712 19.118C39.6228 18.973 39.4992 18.8159 39.4003 18.6467C39.3014 18.4775 39.2188 18.2926 39.1531 18.0909C39.087 17.8896 38.9962 17.6842 38.8811 17.4746C38.7161 17.1363 38.6338 16.7658 38.6338 16.3629L38.5596 15.952H38.4854C38.436 16.0329 38.3823 16.1132 38.3247 16.1937C38.2667 16.2745 38.2215 16.3629 38.1887 16.4596C37.9576 16.9754 37.6362 17.4262 37.2243 17.8129C37.1749 17.8454 37.1335 17.8817 37.1007 17.9217C37.0675 17.9621 37.0347 18.0063 37.0018 18.0546C36.7379 18.3609 36.4165 18.6105 36.0374 18.8038C35.7569 18.9651 35.4769 19.0538 35.1967 19.0697C34.9163 19.0859 34.6361 19.078 34.356 19.0455C34.29 19.0455 34.2239 19.0417 34.1582 19.0334C34.0922 19.0255 34.0261 19.0213 33.9604 19.0213C33.4326 18.9247 33.0289 18.6267 32.7488 18.1271L32.6746 18.0546C32.4111 17.8454 32.2257 17.6038 32.1183 17.3296C32.0112 17.0558 31.9247 16.7737 31.8586 16.4837C31.7929 16.242 31.7558 16.0045 31.7473 15.7708C31.7392 15.5374 31.7435 15.2995 31.7597 15.0578V15.0438C31.6707 15.1623 31.5877 15.2835 31.5125 15.4083C31.4298 15.5453 31.3476 15.6783 31.2652 15.807C31.232 15.8395 31.2115 15.8795 31.2035 15.9279C31.1949 15.9762 31.1826 16.0166 31.1664 16.0487C31.1331 16.0487 31.1169 16.057 31.1169 16.0728C31.1169 16.0891 31.1084 16.0971 31.0922 16.0971C31.059 16.1778 31.018 16.2662 30.9686 16.3629C30.9191 16.4596 30.8612 16.5483 30.7954 16.6288L30.4245 16.9671L30.2515 17.1604L30.202 17.2329L30.1525 17.2571C29.9215 17.37 29.7074 17.523 29.5096 17.7163L29.3613 17.8613C29.2292 17.9904 29.1055 18.0871 28.9904 18.1513C28.8749 18.2158 28.7512 18.2884 28.6195 18.3688C28.5534 18.4172 28.4916 18.4696 28.434 18.5259C28.3761 18.5825 28.3143 18.6267 28.2486 18.6588C28.1659 18.6913 28.0917 18.7193 28.0261 18.7434C27.96 18.7676 27.8939 18.7879 27.8283 18.8038L27.4573 19.0697C27.2758 19.118 27.0946 19.1705 26.9134 19.2267C26.7317 19.2834 26.5339 19.3272 26.3198 19.3597C26.1054 19.3918 25.8624 19.3876 25.5905 19.3476C25.3185 19.3072 25.0422 19.2389 24.7621 19.1422C24.4816 19.0297 24.2305 18.8925 24.0079 18.7313C23.7854 18.5704 23.608 18.4013 23.4763 18.2238C23.2452 17.9017 23.0517 17.5634 22.8952 17.2088C22.7387 16.8545 22.6356 16.4758 22.5861 16.0728C22.5532 15.8312 22.5285 15.5816 22.5119 15.3237C22.4957 15.0661 22.4872 14.8082 22.4872 14.5503C22.4872 14.3248 22.4957 14.1115 22.5119 13.9098C22.5246 13.7557 22.5422 13.5945 22.5644 13.426C22.4086 13.5807 22.2471 13.7185 22.0794 13.8374C21.8402 14.0066 21.622 14.0995 21.4241 14.1153C21.3414 14.1315 21.2386 14.1436 21.115 14.1515C20.9914 14.1598 20.8963 14.1798 20.8306 14.212C20.7646 14.2444 20.7194 14.2686 20.6947 14.2844C20.6699 14.3007 20.6533 14.3169 20.6452 14.3328C20.6367 14.349 20.6328 14.3732 20.6328 14.4053C20.6328 14.4377 20.6162 14.494 20.5834 14.5745C20.435 14.9128 20.3238 15.2633 20.2496 15.6258C20.1754 15.9883 20.0556 16.347 19.891 16.7012L19.4459 17.6921C19.3632 17.8855 19.2149 18.0871 19.0008 18.2963C18.7864 18.5059 18.5968 18.683 18.4322 18.828C18.3495 18.9088 18.2591 18.9772 18.1601 19.0334C18.0613 19.0901 17.9623 19.1422 17.8634 19.1905C17.6985 19.2551 17.5791 19.2909 17.5049 19.2993C17.4307 19.3072 17.3109 19.3355 17.1464 19.3838C16.9648 19.448 16.7836 19.4722 16.6023 19.4564C16.4207 19.4401 16.2395 19.416 16.0584 19.3838L15.1435 19.2146C14.7146 19.118 14.3522 18.953 14.0555 18.7193C13.7588 18.4859 13.5073 18.2038 13.3013 17.8734C13.0954 17.5433 12.9304 17.1888 12.8068 16.81C12.6831 16.4316 12.5885 16.057 12.5224 15.6862C12.4729 15.4286 12.4401 15.1749 12.4235 14.9249C12.4073 14.6753 12.4154 14.4216 12.4483 14.1636L12.5719 13.1727C12.6051 12.9473 12.6669 12.734 12.7573 12.5323C12.8481 12.331 12.9427 12.1335 13.0417 11.9402C13.0749 11.8597 13.1078 11.7873 13.1406 11.7227C13.1734 11.6585 13.2063 11.586 13.2395 11.5051C13.3546 11.183 13.5115 10.8851 13.7093 10.6109C13.9071 10.3372 14.1459 10.0792 14.4264 9.8376C14.4759 9.78929 14.5334 9.74925 14.5995 9.71674C14.6651 9.68468 14.7393 9.65254 14.822 9.62011C14.9209 9.53966 15.0198 9.47129 15.1188 9.41462C15.2176 9.3584 15.3166 9.29793 15.4154 9.23337L15.8605 9.08842C16.0912 9.00797 16.3219 8.93542 16.5529 8.87085C16.7836 8.80666 17.0227 8.77422 17.27 8.77422C17.3851 8.79048 17.4925 8.80666 17.5915 8.82254C17.6903 8.83879 17.7893 8.86295 17.8881 8.89501C18.086 8.99172 18.2876 9.08462 18.494 9.17297C18.6999 9.2617 18.902 9.34632 19.0998 9.4267C19.3471 9.53966 19.5487 9.6805 19.7056 9.84968C19.862 10.0189 19.9815 10.2164 20.0642 10.4418C20.0803 10.4743 20.0889 10.4984 20.0889 10.5143C20.0889 10.5305 20.0969 10.5467 20.1136 10.5626C20.2782 10.7885 20.3813 11.0259 20.4227 11.2756C20.4636 11.5256 20.5007 11.7873 20.534 12.0611L20.6081 13.1244V13.3178H21.1769C21.4569 13.2373 21.7289 13.1085 21.9928 12.931C22.2563 12.7539 22.5202 12.456 22.7841 12.0368C22.8573 11.9178 22.9326 11.7896 23.0103 11.6527C23.0684 11.5224 23.1316 11.3925 23.2043 11.2635C23.3689 10.9734 23.5629 10.6997 23.7854 10.4418C24.0079 10.1842 24.2756 9.95048 24.589 9.7409C24.7041 9.66045 24.8115 9.58007 24.9105 9.49925C25.0093 9.4188 25.1164 9.33835 25.2319 9.25752C25.2975 9.20921 25.3679 9.16917 25.442 9.13674C25.5163 9.1046 25.5943 9.1046 25.677 9.13674L25.7264 9.11258C25.8748 9.03213 26.0312 8.98791 26.1963 8.97964C26.3609 8.97173 26.5258 8.9434 26.6908 8.89501C27.1193 8.7825 27.5643 8.83082 28.0261 9.04003C28.2073 9.12085 28.368 9.22546 28.5082 9.35423C28.6481 9.48337 28.7841 9.61213 28.9162 9.7409C28.9819 9.78929 29.0274 9.85795 29.0522 9.94631C29.0769 10.0351 29.1055 10.1197 29.1388 10.2001C29.221 10.4097 29.2871 10.6193 29.3366 10.8284C29.3861 11.038 29.3775 11.2556 29.3118 11.481C29.2952 11.5618 29.2747 11.6343 29.25 11.6985C29.2253 11.7631 29.155 11.8035 29.0398 11.8193C28.9904 11.8193 28.9657 11.8356 28.9657 11.8676C28.9324 11.9485 28.8915 11.9885 28.842 11.9885C28.7925 11.9885 28.7265 11.9726 28.6442 11.9402C28.5287 11.8919 28.4502 11.8477 28.4093 11.8073C28.368 11.7672 28.3475 11.6906 28.3475 11.5777C28.3475 11.4972 28.3514 11.4248 28.3598 11.3602C28.368 11.296 28.3722 11.2314 28.3722 11.1668C28.3722 11.0864 28.3761 11.006 28.3846 10.9251C28.3927 10.8447 28.3885 10.7642 28.3722 10.6835C28.3227 10.3613 28.1249 10.168 27.7788 10.1034C27.7455 10.0876 27.7046 10.0792 27.6551 10.0792C27.6057 10.0792 27.5643 10.0634 27.5315 10.0309C27.3499 9.96674 27.1853 10.0068 27.0369 10.1518C26.5587 10.5868 26.2619 11.0864 26.1468 11.6502C26.1302 11.7793 26.0973 11.904 26.0479 12.0247C25.9985 12.1456 25.9571 12.2706 25.9242 12.3993C25.891 12.4802 25.8663 12.5564 25.85 12.629C25.8334 12.7015 25.8254 12.7781 25.8254 12.8585C25.8087 12.9394 25.8045 13.0118 25.813 13.076C25.8211 13.1406 25.8254 13.2132 25.8254 13.2936L25.7264 14.1394L25.6522 14.6953C25.6522 14.792 25.6522 14.8887 25.6522 14.9853C25.6522 15.082 25.6438 15.187 25.6275 15.2995C25.6275 15.5253 25.6522 15.7507 25.7017 15.9762C25.7512 16.202 25.8087 16.4274 25.8748 16.6529C26.0232 16.9271 26.2619 17.08 26.5919 17.1121C27.1026 17.1121 27.6057 16.9913 28.1002 16.7495L28.2239 16.6529C28.3556 16.5725 28.4669 16.4879 28.5576 16.3991C28.6481 16.3108 28.7431 16.2262 28.842 16.1454C28.941 16.0971 29.0437 16.0449 29.1511 15.9883C29.2581 15.932 29.3694 15.8474 29.4849 15.7346L29.5096 15.7103C29.9381 15.4849 30.3009 15.1707 30.5976 14.7678C30.6633 14.7678 30.7127 14.7437 30.746 14.6953C30.7954 14.5986 30.8407 14.5103 30.882 14.4295C30.9229 14.349 30.9686 14.2686 31.018 14.1878C31.1992 14.0752 31.3433 13.9181 31.4507 13.7165C31.5578 13.5153 31.669 13.3339 31.7845 13.1727C31.8007 13.1406 31.8131 13.1165 31.8216 13.1002C31.8298 13.0844 31.834 13.0602 31.834 13.0277L31.9082 12.9069C32.0071 12.8748 32.048 12.8585 32.0318 12.8585C32.0975 12.8102 32.1512 12.7539 32.1925 12.6894C32.2335 12.6252 32.2791 12.5848 32.3285 12.5685C32.3596 12.5382 32.3946 12.519 32.4333 12.5099C32.5099 12.3544 32.5972 12.2041 32.6993 12.0611C32.8144 11.9002 32.93 11.731 33.0455 11.5535C33.1607 11.4085 33.2928 11.2797 33.4411 11.1668L34.0345 10.6835C34.3313 10.426 34.6775 10.2164 35.0731 10.0551C35.2049 9.9909 35.3408 9.94631 35.4811 9.92215C35.621 9.89799 35.7569 9.87801 35.8891 9.86176C36.0537 9.82962 36.2144 9.80964 36.3713 9.80136C36.5277 9.79339 36.6884 9.78131 36.8535 9.76505C36.9523 9.76505 37.0513 9.7734 37.1501 9.78929C37.2491 9.80547 37.348 9.82172 37.4469 9.8376C37.4798 9.85385 37.5249 9.86593 37.5829 9.87384C37.6405 9.88211 37.661 9.92633 37.6447 10.0068C37.6447 10.0392 37.661 10.0551 37.6942 10.0551C37.8588 10.0876 37.97 10.1601 38.028 10.2726C38.0855 10.3855 38.1555 10.4902 38.2382 10.5868C38.3205 10.6997 38.3989 10.8084 38.4731 10.9131C38.5472 11.018 38.6253 11.1347 38.708 11.2635L38.8069 11.0218L39.1777 9.8376C39.2106 9.75715 39.2477 9.6726 39.2891 9.5838C39.33 9.49544 39.3756 9.41089 39.425 9.33007C39.4907 9.21756 39.5982 9.18505 39.7465 9.23337C39.9111 9.31419 40.0718 9.37838 40.2287 9.4267C40.3852 9.47509 40.5377 9.53966 40.6862 9.62011C40.8179 9.66842 40.9249 9.73299 41.0075 9.81344C41.0899 9.89427 41.164 9.97464 41.2301 10.0551C41.2958 10.1359 41.3538 10.2243 41.4032 10.321C41.436 10.3693 41.4565 10.426 41.465 10.4902C41.4731 10.5547 41.4855 10.6272 41.5021 10.7076C41.535 10.901 41.5597 11.0943 41.5763 11.2876C41.5925 11.481 41.601 11.6827 41.601 11.8919C41.6172 11.9885 41.6172 12.0893 41.601 12.1939C41.5844 12.2989 41.5678 12.4077 41.5516 12.5202C41.535 12.6331 41.5268 12.746 41.5268 12.8585C41.5268 12.9714 41.5268 13.0923 41.5268 13.2211C41.5268 13.3661 41.5268 13.5073 41.5268 13.644C41.5268 13.7811 41.543 13.9219 41.5763 14.0669C41.5925 14.1636 41.601 14.2603 41.601 14.357C41.601 14.4536 41.601 14.5503 41.601 14.6469C41.601 14.7599 41.5967 14.8728 41.5887 14.9853C41.5801 15.0983 41.5678 15.2111 41.5516 15.3237C41.5183 15.5654 41.5268 15.7829 41.5763 15.9762C41.5925 16.0728 41.6091 16.2099 41.6257 16.387C41.642 16.5646 41.6586 16.7458 41.6752 16.9308C41.6915 17.1162 41.7204 17.2933 41.7618 17.4625C41.8027 17.6317 41.873 17.7487 41.9719 17.8129C42.1203 17.9096 42.2478 17.938 42.3552 17.8975C42.4622 17.8575 42.5611 17.7888 42.6519 17.6921C42.7423 17.5954 42.825 17.4829 42.8992 17.3538C42.9734 17.225 43.0352 17.1204 43.0846 17.0396C43.3153 16.6692 43.5212 16.3108 43.7028 15.9641C43.884 15.6179 44.0405 15.3237 44.1726 15.082L44.4694 14.3811L44.9144 13.4386L44.9639 13.3661V13.2936L45.038 13.1727C45.0709 13.1569 45.0875 13.1085 45.0875 13.0277C45.0875 13.0118 45.0956 12.9957 45.1122 12.9794C45.1284 12.9635 45.1451 12.9394 45.1617 12.9069L45.2606 12.8585C45.3211 12.814 45.3742 12.7619 45.4211 12.7036L45.4336 12.5444L45.5572 11.4327C45.5905 11.2556 45.648 11.1468 45.7303 11.1064C45.813 11.0664 45.9196 11.038 46.0517 11.0218C46.1341 11.0218 46.2125 11.018 46.2866 11.0098C46.3608 11.0018 46.4307 10.9576 46.4968 10.8768C46.5958 10.8126 46.7109 10.7964 46.843 10.8284C46.9419 10.8609 47.0408 10.9052 47.1397 10.9614C47.2386 11.018 47.3375 11.0702 47.4364 11.1185C47.4693 11.151 47.4859 11.2072 47.4859 11.2876L47.5601 11.6985C47.5763 11.7469 47.5848 11.8114 47.5848 11.8919C47.5848 12.0531 47.6424 12.1498 47.7579 12.1818C47.7741 12.3431 47.7865 12.4719 47.795 12.5685C47.8031 12.6652 47.8073 12.7581 47.8073 12.8465C47.8073 12.9352 47.8073 12.9877 47.8073 13.0036L47.8815 13.2452C47.9144 13.2132 47.9391 13.189 47.9557 13.1727C47.9719 13.1569 47.9885 13.1327 48.0052 13.1002C48.0709 12.9714 48.1326 12.8344 48.1907 12.6894C48.2482 12.5444 48.3182 12.4077 48.4008 12.2785C48.4665 12.1335 48.5368 11.9927 48.611 11.8556C48.6851 11.7189 48.7632 11.5777 48.8459 11.4327L48.9942 11.1185C49.126 10.8284 49.3072 10.603 49.5383 10.4418C49.5711 10.4097 49.5958 10.3855 49.6124 10.3693C49.6287 10.3534 49.6534 10.3292 49.6866 10.2967C49.8678 10.0713 50.078 9.89009 50.3171 9.75298C50.5559 9.61631 50.8155 9.49925 51.0961 9.40254C51.1783 9.37048 51.2649 9.33007 51.3557 9.28175C51.4461 9.23337 51.5411 9.1934 51.64 9.16089C51.8378 9.08044 52.0395 9.04421 52.2459 9.05211C52.4517 9.06046 52.6539 9.0967 52.8517 9.16089C53.0329 9.20921 53.2017 9.26587 53.3586 9.33007C53.5151 9.39464 53.6758 9.46711 53.8407 9.54756C53.923 9.58007 53.9891 9.62011 54.0386 9.66842C54.088 9.71674 54.1456 9.74925 54.2116 9.76505C54.4917 9.82962 54.6938 9.95048 54.8174 10.1276C54.9411 10.3051 55.0523 10.5063 55.1513 10.7318C55.2007 10.8609 55.2501 10.9855 55.2996 11.1064C55.3491 11.2273 55.4148 11.3443 55.4974 11.4568C55.5797 11.586 55.6291 11.7189 55.6458 11.8556C55.662 11.9927 55.6786 12.1335 55.6952 12.2785C55.7281 12.5527 55.7362 12.8265 55.72 13.1002C55.7034 13.3744 55.6705 13.6481 55.6211 13.9219C55.5384 14.4053 55.4356 14.8766 55.312 15.3357C55.1883 15.7949 55.0276 16.2341 54.8298 16.6529H54.8545L54.7062 16.9187C54.7062 16.9512 54.6895 16.9833 54.6567 17.0154L54.5084 17.2571V17.4262C54.6401 17.3942 54.7595 17.3379 54.8669 17.2571C54.9739 17.1766 55.0771 17.0962 55.176 17.0154C55.3078 16.9029 55.4395 16.802 55.5716 16.7133C55.7034 16.625 55.8351 16.532 55.9672 16.4354C56.0495 16.3712 56.1195 16.3187 56.1774 16.2783C56.235 16.2383 56.2887 16.1858 56.3381 16.1212C56.3544 16.1053 56.3629 16.0891 56.3629 16.0728C56.5935 15.9441 56.7747 15.7507 56.9069 15.4928C57.0386 15.2353 57.1704 15.0095 57.3025 14.8161C57.4014 14.8161 57.459 14.7841 57.4756 14.7195L57.7476 14.212C57.9288 14.0995 58.0729 13.9424 58.1803 13.7407C58.2873 13.5394 58.3905 13.3582 58.4894 13.1969C58.5551 13.1648 58.5717 13.1165 58.5389 13.0519L58.6377 12.931L58.7367 12.8827C58.8024 12.8344 58.856 12.7781 58.8974 12.7135C58.9224 12.6744 58.9493 12.6452 58.9775 12.6238L58.9838 12.5444L59.1074 11.4327C59.1407 11.2556 59.1982 11.1468 59.2805 11.1064C59.3632 11.0664 59.4698 11.038 59.6019 11.0218C59.6843 11.0218 59.7627 11.018 59.8368 11.0098C59.9111 11.0018 59.9809 10.9576 60.047 10.8768C60.146 10.8126 60.2611 10.7964 60.3933 10.8284C60.4921 10.8609 60.591 10.9052 60.6899 10.9614C60.7889 11.018 60.8878 11.0702 60.9867 11.1185C61.0195 11.151 61.0361 11.2072 61.0361 11.2876L61.1103 11.6985C61.1265 11.7469 61.135 11.8114 61.135 11.8919C61.135 12.0531 61.1926 12.1498 61.3081 12.1818C61.3243 12.3431 61.3367 12.4719 61.3452 12.5685C61.3533 12.6652 61.3576 12.7581 61.3576 12.8465C61.3576 12.9352 61.3576 12.9877 61.3576 13.0036L61.4317 13.2452C61.4646 13.2132 61.4894 13.189 61.506 13.1727C61.5221 13.1569 61.5388 13.1327 61.5554 13.1002C61.6211 12.9714 61.6829 12.8344 61.7409 12.6894C61.7984 12.5444 61.8684 12.4077 61.951 12.2785C62.0167 12.1335 62.087 11.9927 62.1612 11.8556C62.2354 11.7189 62.3135 11.5777 62.3961 11.4327L62.5444 11.1185C62.6762 10.8284 62.8574 10.603 63.0885 10.4418C63.1213 10.4097 63.146 10.3855 63.1626 10.3693C63.1789 10.3534 63.2036 10.3292 63.2368 10.2967C63.418 10.0713 63.6282 9.89009 63.8673 9.75298C64.1062 9.61631 64.3658 9.49925 64.6463 9.40254C64.7285 9.37048 64.8151 9.33007 64.9059 9.28175C64.9963 9.23337 65.0914 9.1934 65.1902 9.16089C65.3881 9.08044 65.5897 9.04421 65.7961 9.05211C66.002 9.06046 66.2041 9.0967 66.4019 9.16089C66.5831 9.20921 66.7519 9.26587 66.9088 9.33007C67.0653 9.39464 67.226 9.46711 67.391 9.54756C67.4732 9.58007 67.5393 9.62011 67.5888 9.66842C67.6382 9.71674 67.6958 9.74925 67.7619 9.76505C68.0419 9.82962 68.244 9.95048 68.3676 10.1276C68.4913 10.3051 68.6025 10.5063 68.7015 10.7318C68.7509 10.8609 68.8004 10.9855 68.8498 11.1064C68.8993 11.2273 68.965 11.3443 69.0476 11.4568C69.13 11.586 69.1794 11.7189 69.196 11.8556C69.2122 11.9927 69.2288 12.1335 69.2454 12.2785C69.2783 12.5527 69.2865 12.8265 69.2702 13.1002C69.2536 13.3744 69.2207 13.6481 69.1713 13.9219C69.0886 14.4053 68.9858 14.8766 68.8622 15.3357C68.7386 15.7949 68.5778 16.2341 68.38 16.6529H68.4047L68.2564 16.9187C68.2564 16.9512 68.2398 16.9833 68.2069 17.0154L68.0586 17.2571V17.4262C68.1903 17.3942 68.3097 17.3379 68.4171 17.2571C68.5241 17.1766 68.6273 17.0962 68.7262 17.0154C68.858 16.9029 68.9897 16.802 69.1218 16.7133C69.2536 16.625 69.3853 16.532 69.5175 16.4354C69.5998 16.3712 69.6697 16.3187 69.7276 16.2783C69.7852 16.2383 69.8389 16.1858 69.8884 16.1212C69.9046 16.1053 69.9131 16.0891 69.9131 16.0728C70.1437 15.9441 70.325 15.7507 70.4571 15.4928C70.5888 15.2353 70.7206 15.0095 70.8527 14.8161C70.9517 14.8161 71.0092 14.7841 71.0258 14.7195L71.2978 14.212C71.479 14.0995 71.6231 13.9424 71.7305 13.7407C71.8376 13.5394 71.9407 13.3582 72.0396 13.1969C72.1053 13.1648 72.1219 13.1165 72.0891 13.0519L72.188 12.931L72.2869 12.8827C72.3526 12.8344 72.4063 12.7781 72.4476 12.7135C72.4885 12.6493 72.5342 12.6089 72.5836 12.5927C72.6164 12.5769 72.6535 12.5606 72.6949 12.5444C72.7358 12.5285 72.7814 12.4802 72.8308 12.3993C72.8803 12.319 72.9213 12.2385 72.9545 12.1577C72.9873 12.0772 73.0449 12.021 73.1276 11.9885C73.1932 11.9564 73.2551 11.9122 73.313 11.8556C73.3706 11.7994 73.4158 11.7469 73.4491 11.6985C73.4985 11.6664 73.5356 11.6222 73.5603 11.5656C73.585 11.5093 73.6303 11.4489 73.6963 11.3843C73.7291 11.3522 73.7662 11.3281 73.8076 11.3118C73.8485 11.296 73.8856 11.2718 73.9189 11.2393C73.8856 11.3202 73.8528 11.4047 73.82 11.4931ZM17.6038 13.8736C17.2329 13.5194 16.9566 13.0602 16.7754 12.496C16.6271 12.7219 16.5158 12.9553 16.4417 13.1969C16.3674 13.4386 16.289 13.6723 16.2067 13.8978C16.1407 14.1074 16.1078 14.349 16.1078 14.6228C16.1078 14.7519 16.1117 14.8887 16.1202 15.0337C16.1283 15.1786 16.1407 15.3158 16.1573 15.4445C16.1573 15.5737 16.1735 15.7066 16.2067 15.8433C16.2395 15.9804 16.2315 16.1212 16.182 16.2662C16.1654 16.3146 16.1735 16.3954 16.2067 16.5079C16.2395 16.5887 16.2724 16.6771 16.3056 16.7737C16.3385 16.8704 16.3713 16.9671 16.4045 17.0637C16.5363 17.4021 16.7507 17.66 17.0474 17.8371C17.1792 17.9179 17.3276 17.9421 17.4925 17.9096C17.6571 17.8775 17.7807 17.7971 17.8634 17.668C17.8963 17.5875 17.9538 17.4988 18.0366 17.4021C18.1188 17.3054 18.1849 17.217 18.2344 17.1363C18.3166 16.9913 18.3989 16.8704 18.4816 16.7737C18.5639 16.6771 18.63 16.5483 18.6794 16.387C18.7451 16.2099 18.8069 16.0329 18.8649 15.8553C18.9224 15.6783 18.9924 15.5012 19.075 15.3237C19.174 15.0178 19.2149 14.7278 19.1987 14.4536C18.5064 14.4216 17.9747 14.2282 17.6038 13.8736ZM19.2976 12.8585C19.2976 12.5365 19.2728 12.2181 19.2234 11.904C19.174 11.5898 19.0584 11.2876 18.8772 10.9976C18.8278 10.901 18.7536 10.8043 18.6547 10.7076C18.5392 10.6272 18.4483 10.6434 18.3827 10.756C18.3166 10.9172 18.2753 11.038 18.2591 11.1185C18.2258 11.2476 18.2134 11.3643 18.222 11.4689C18.2301 11.5739 18.2178 11.6906 18.1849 11.8193C18.1354 12.0772 18.1517 12.3148 18.2344 12.5323C18.3166 12.7498 18.4483 12.9553 18.63 13.1486C18.7122 13.2294 18.7988 13.2777 18.8896 13.2936C18.98 13.3098 19.075 13.3178 19.174 13.3178C19.2563 13.3178 19.2976 13.2615 19.2976 13.1486V12.8585ZM38.4607 12.6169C38.4274 12.5365 38.3904 12.4598 38.3494 12.3873C38.3081 12.3148 38.271 12.2385 38.2382 12.1577C38.1226 11.8839 37.9576 11.6101 37.7436 11.336C37.6281 11.2072 37.5002 11.1064 37.3604 11.0339C37.2201 10.9614 37.0594 10.9655 36.8782 11.046C36.8616 11.0622 36.8202 11.0702 36.7545 11.0702C36.5729 11.1347 36.4493 11.2234 36.3836 11.336C36.3504 11.4005 36.2928 11.4731 36.2106 11.5535C36.095 11.6343 36.0042 11.7189 35.9386 11.8073C35.8725 11.896 35.8149 11.9969 35.7655 12.1094L35.4935 12.5444C35.3119 12.8668 35.1596 13.2011 35.036 13.5473C34.9124 13.894 34.8259 14.2524 34.7764 14.6228C34.7764 14.6874 34.7679 14.7519 34.7516 14.8161C34.735 14.8807 34.7185 14.9453 34.7022 15.0095C34.669 15.1386 34.6442 15.2753 34.6281 15.4204C34.6114 15.5654 34.6033 15.7187 34.6033 15.8795C34.6033 16.2662 34.6528 16.6129 34.7516 16.9187C34.7845 17.0637 34.8297 17.205 34.8877 17.3417C34.9452 17.4787 35.0484 17.5795 35.1967 17.6437C35.3613 17.7083 35.5344 17.7163 35.716 17.668C35.8972 17.6196 36.0745 17.5392 36.2476 17.4262C36.4208 17.3137 36.5772 17.1888 36.7174 17.0517C36.8573 16.915 36.9686 16.782 37.0513 16.6529L38.164 14.8161C38.3618 14.494 38.4607 14.1919 38.4607 13.9098C38.4607 13.6282 38.4769 13.3178 38.5101 12.9794C38.5101 12.8185 38.4935 12.6977 38.4607 12.6169ZM52.2582 13.1244C52.2416 13.0118 52.2292 12.9031 52.2211 12.7982C52.2126 12.6935 52.1922 12.5848 52.1593 12.4719C52.1098 12.2302 52.0519 12.021 51.9862 11.8435C51.9036 11.5697 51.8046 11.3805 51.6895 11.2756C51.5739 11.171 51.4503 11.1185 51.3186 11.1185C51.1865 11.1185 51.0504 11.1589 50.9106 11.2393C50.7703 11.3202 50.6344 11.4248 50.5026 11.5535C50.3705 11.6827 50.2468 11.8235 50.1317 11.9764C50.0161 12.1297 49.9173 12.2785 49.8349 12.4236C49.7195 12.601 49.6371 12.7902 49.5877 12.9915C49.5383 13.1931 49.4803 13.3902 49.4146 13.5836C49.3651 13.7127 49.3238 13.8415 49.291 13.9702C49.2577 14.0995 49.2002 14.2282 49.1179 14.357L49.0685 14.4778C49.0352 14.639 48.9981 14.792 48.9571 14.937C48.9158 15.082 48.8621 15.2353 48.7964 15.3962C48.7138 15.5411 48.6685 15.6903 48.6605 15.8433C48.6519 15.9966 48.6643 16.1537 48.6975 16.3146C48.7138 16.347 48.7222 16.3954 48.7222 16.4596C48.7222 16.6045 48.718 16.7458 48.7099 16.8825C48.7014 17.0196 48.6975 17.1604 48.6975 17.3054L48.5986 18.3204V18.7313H48.7222L49.9586 18.2963C50.552 18.103 50.9971 17.7325 51.2939 17.1846C51.3101 17.1525 51.3514 17.1041 51.4175 17.0396C51.5492 16.8625 51.6687 16.6812 51.7761 16.4958C51.8831 16.3108 51.9529 16.1053 51.9862 15.8795C52.0519 15.4124 52.1222 14.9532 52.1964 14.5019C52.2706 14.0511 52.291 13.5919 52.2582 13.1244ZM65.8085 13.1244C65.7918 13.0118 65.7795 12.9031 65.7714 12.7982C65.7628 12.6935 65.7424 12.5848 65.7095 12.4719C65.66 12.2302 65.6021 12.021 65.5364 11.8435C65.4538 11.5697 65.3548 11.3805 65.2397 11.2756C65.1242 11.171 65.0005 11.1185 64.8688 11.1185C64.7367 11.1185 64.6007 11.1589 64.4608 11.2393C64.3205 11.3202 64.1846 11.4248 64.0528 11.5535C63.9207 11.6827 63.797 11.8235 63.6819 11.9764C63.5663 12.1297 63.4675 12.2785 63.3852 12.4236C63.2697 12.601 63.1873 12.7902 63.1379 12.9915C63.0885 13.1931 63.0305 13.3902 62.9648 13.5836C62.9154 13.7127 62.874 13.8415 62.8412 13.9702C62.808 14.0995 62.7504 14.2282 62.6681 14.357L62.6187 14.4778C62.5854 14.639 62.5484 14.792 62.5073 14.937C62.466 15.082 62.4123 15.2353 62.3466 15.3962C62.264 15.5411 62.2187 15.6903 62.2107 15.8433C62.2021 15.9966 62.2145 16.1537 62.2478 16.3146C62.264 16.347 62.2724 16.3954 62.2724 16.4596C62.2724 16.6045 62.2682 16.7458 62.2601 16.8825C62.2516 17.0196 62.2478 17.1604 62.2478 17.3054L62.1488 18.3204V18.7313H62.2724L63.5088 18.2963C64.1022 18.103 64.5473 17.7325 64.8441 17.1846C64.8603 17.1525 64.9016 17.1041 64.9677 17.0396C65.0995 16.8625 65.2189 16.6812 65.3263 16.4958C65.4333 16.3108 65.5032 16.1053 65.5364 15.8795C65.6021 15.4124 65.6724 14.9532 65.7466 14.5019C65.8208 14.0511 65.8412 13.5919 65.8085 13.1244ZM14.3524 1.9106C14.2041 2.26513 14.0596 2.62354 13.9197 2.98605C13.7795 3.34856 13.6601 3.71525 13.5612 4.08567C13.4457 4.50484 13.3178 4.91947 13.1779 5.3303C13.0377 5.74112 12.9017 6.15612 12.7699 6.57493C12.7205 6.70406 12.6791 6.83701 12.6463 6.97367C12.6131 7.11079 12.5802 7.24373 12.5474 7.3725C12.4813 7.54995 12.4238 7.71913 12.3743 7.88003C12.3248 8.04122 12.2754 8.2104 12.226 8.38756C12.1599 8.66164 12.1023 8.92752 12.0529 9.18505C12.0034 9.44295 11.9374 9.70086 11.855 9.95839C11.7067 10.4097 11.5911 10.8609 11.5089 11.3118C11.4262 11.7631 11.3192 12.206 11.1874 12.6411C11.1047 12.9152 11.0429 13.1848 11.0019 13.4506C10.9606 13.7165 10.9154 13.9865 10.866 14.2603L10.6929 15.1062C10.6102 15.4769 10.5403 15.8395 10.4827 16.1937C10.4247 16.5483 10.3629 16.9108 10.2972 17.2812C10.2972 17.3621 10.2888 17.4104 10.2725 17.4262C10.1898 17.5392 10.1404 17.6521 10.1241 17.7646C10.1076 17.8775 10.091 17.9983 10.0747 18.1271C10.0253 18.353 9.98394 18.5863 9.95108 18.828C9.91785 19.0697 9.88499 19.3113 9.85214 19.553C9.83552 19.6497 9.81082 19.7463 9.77797 19.843C9.74473 19.9397 9.73665 20.0364 9.75327 20.1331C9.75327 20.2134 9.75712 20.2902 9.76558 20.3626C9.77374 20.4351 9.77797 20.5114 9.77797 20.5922C9.77797 20.7694 9.78612 20.9385 9.80274 21.0997C9.8189 21.2606 9.81082 21.4298 9.77797 21.6073C9.77797 21.704 9.74473 21.7964 9.6791 21.8852C9.61301 21.9736 9.54692 22.0581 9.48129 22.139C9.44805 22.1711 9.37388 22.1873 9.2587 22.1873H8.34381C8.19546 22.1873 8.10468 22.1307 8.07182 22.0181C8.03859 21.9374 7.99342 21.8811 7.93579 21.8489C7.87786 21.8165 7.81608 21.7844 7.75037 21.7523C7.61827 21.6877 7.52786 21.6232 7.47838 21.559C7.34621 21.4298 7.22687 21.3052 7.11984 21.1844C7.01244 21.0635 6.90118 20.9385 6.786 20.8098C6.75277 20.7773 6.71568 20.741 6.67475 20.701C6.63343 20.6606 6.59635 20.6244 6.56349 20.5922C6.46455 20.3826 6.35329 20.1852 6.22965 20.0001C6.10601 19.8147 6.00291 19.6172 5.92058 19.4081C5.85449 19.263 5.78455 19.1263 5.71038 18.9972C5.63621 18.8684 5.55781 18.7396 5.47548 18.6105C5.29391 18.2884 5.12933 17.9542 4.98099 17.6075C4.83257 17.2612 4.69231 16.9029 4.56059 16.532C4.47788 16.2904 4.38324 16.0487 4.27622 15.807C4.16882 15.5654 4.07418 15.3237 3.99185 15.082C3.90922 14.8887 3.83112 14.6915 3.75695 14.4898C3.68278 14.2886 3.60438 14.0911 3.52205 13.8978C3.40657 13.5757 3.29524 13.2536 3.18829 12.931C3.08081 12.6089 2.96147 12.2868 2.82975 11.9644C2.68133 11.5293 2.52876 11.0985 2.37226 10.6714C2.21539 10.2447 2.06319 9.82172 1.91478 9.40254C1.78268 9.03213 1.65518 8.66164 1.53154 8.29085C1.4079 7.92044 1.28811 7.54995 1.173 7.17916C1.09029 6.90538 1.01612 6.6395 0.950487 6.38159C0.884398 6.12406 0.810228 5.85818 0.7279 5.58402L0.134462 3.55398L0.0108195 3.04645C-0.00541944 2.91768 0.00273779 2.79682 0.0355933 2.68394C0.0688264 2.57143 0.134462 2.47472 0.233406 2.3939C0.365508 2.29727 0.493002 2.20056 0.616645 2.10393C0.740287 2.00723 0.876316 1.93476 1.02466 1.88637C1.20585 1.82217 1.38705 1.76968 1.56862 1.72927C1.74982 1.68931 1.93102 1.66888 2.11267 1.66888C2.40935 1.66888 2.72227 1.74142 3.05226 1.88637C3.3324 2.01551 3.59199 2.1685 3.83112 2.34558C4.06995 2.52304 4.28007 2.7406 4.46172 2.99813C4.61006 3.20772 4.69231 3.44147 4.70893 3.699C4.70893 3.76357 4.72517 3.8602 4.7584 3.98896L5.50026 5.97077L5.74747 6.50245C5.81318 6.67991 5.87111 6.88912 5.92058 7.13077L6.24204 8.09752C6.27489 8.2104 6.30382 8.31918 6.32859 8.42379C6.35329 8.52877 6.38192 8.62921 6.41515 8.72583C6.51402 9.04838 6.61296 9.3625 6.71183 9.66842C6.81078 9.97464 6.9178 10.2809 7.03329 10.5868C7.099 10.7481 7.16078 10.901 7.21871 11.046C7.27634 11.191 7.33004 11.3443 7.37944 11.5051C7.42891 11.6343 7.47415 11.7589 7.51547 11.8797C7.55641 12.0006 7.59349 12.1256 7.62672 12.2544C7.69244 12.4802 7.75845 12.6977 7.82454 12.9069C7.89025 13.1165 7.93972 13.3339 7.97288 13.5594C8.02235 13.7853 8.0799 14.0066 8.14599 14.224C8.2117 14.4415 8.27772 14.6632 8.34381 14.8887C8.40952 15.1144 8.46322 15.352 8.50453 15.6016C8.54547 15.8516 8.59109 16.0971 8.64056 16.3387C8.6568 16.4354 8.67765 16.5282 8.70235 16.6167C8.72712 16.7054 8.75567 16.7979 8.7889 16.8946H8.86307C8.86307 16.8304 8.87123 16.77 8.88777 16.7133C8.90401 16.657 8.91255 16.6045 8.91255 16.5562C8.9454 16.057 9.02765 15.6057 9.15983 15.2028C9.19261 15.1062 9.22977 15.0095 9.27109 14.9128C9.31202 14.8161 9.35764 14.7278 9.40704 14.6469C9.55546 14.3894 9.64586 14.0911 9.6791 13.7527C9.76135 13.189 9.86838 12.629 10.0006 12.0731C10.1323 11.5172 10.2725 10.9576 10.4209 10.3934C10.5032 10.1197 10.5731 9.84968 10.6311 9.5838C10.6886 9.31799 10.7586 9.04838 10.8412 8.77422C10.973 8.30711 11.1171 7.83581 11.274 7.36042C11.4304 6.88532 11.5831 6.4141 11.7314 5.94661C11.7809 5.80159 11.8218 5.65277 11.855 5.49947C11.8879 5.34655 11.9292 5.19736 11.9787 5.05234L12.399 3.699C12.5308 3.32851 12.6625 2.966 12.7946 2.61146C12.9264 2.25723 13.0748 1.90262 13.2397 1.54801C13.3221 1.37093 13.4043 1.19385 13.487 1.01633C13.5693 0.839246 13.6601 0.662166 13.759 0.484639C13.7919 0.436324 13.8247 0.388009 13.8579 0.339694C13.8908 0.291304 13.9236 0.251266 13.9568 0.218832C14.138 0.00961661 14.344 -0.0307949 14.575 0.0979703C14.575 0.404263 14.5708 0.706306 14.5626 1.00425C14.5542 1.30256 14.4842 1.60468 14.3524 1.9106Z" fill="black"/>
</svg>